<svg id="Component_2_1" data-name="Component 2 – 1" xmlns="http://www.w3.org/2000/svg" width="30.952" height="30.952" viewBox="0 0 30.952 30.952">
  <g id="instagram">
    <path id="Path_1" data-name="Path 1" d="M22.573,0H8.378A8.388,8.388,0,0,0,0,8.379v14.2a8.388,8.388,0,0,0,8.379,8.378h14.2a8.388,8.388,0,0,0,8.378-8.378V8.379A8.388,8.388,0,0,0,22.573,0Zm6.564,22.574a6.571,6.571,0,0,1-6.564,6.564H8.378a6.571,6.571,0,0,1-6.564-6.564V8.379A6.571,6.571,0,0,1,8.378,1.815h14.2a6.571,6.571,0,0,1,6.564,6.564Zm0,0" transform="translate(0.001 0)"/>
    <path id="Path_2" data-name="Path 2" d="M124.467,116a8.463,8.463,0,1,0,8.463,8.463A8.473,8.473,0,0,0,124.467,116Zm0,15.112a6.649,6.649,0,1,1,6.649-6.649A6.656,6.656,0,0,1,124.467,131.116Zm0,0" transform="translate(-108.991 -108.991)"/>
    <path id="Path_3" data-name="Path 3" d="M360.478,66.285a2.5,2.5,0,1,0,2.5,2.5A2.5,2.5,0,0,0,360.478,66.285Zm0,3.187a.686.686,0,1,1,.686-.686A.687.687,0,0,1,360.478,69.472Zm0,0" transform="translate(-336.336 -62.278)"/>
  </g>
</svg>
